<?xml version="1.0" standalone="no"?>
<!DOCTYPE svg PUBLIC "-//W3C//DTD SVG 20010904//EN"
 "http://www.w3.org/TR/2001/REC-SVG-20010904/DTD/svg10.dtd">
<svg version="1.0" xmlns="http://www.w3.org/2000/svg"
 width="600.000000pt" height="600.000000pt" viewBox="0 0 600.000000 600.000000"
 preserveAspectRatio="xMidYMid meet">

<g transform="translate(0.000000,600.000000) scale(0.100000,-0.100000)"
fill="#000000" stroke="none">
<path d="M1253 4264 c-32 -16 -63 -66 -63 -101 0 -29 38 -83 66 -93 14 -6 122
-10 239 -10 l214 0 9 -32 c5 -18 130 -424 277 -903 178 -581 274 -877 287
-892 11 -12 34 -27 50 -32 42 -15 1525 -14 1567 0 44 16 71 54 71 101 0 32 -7
47 -34 74 l-34 34 -731 0 -730 0 -29 93 c-17 50 -33 102 -37 115 l-6 22 809 0
c761 0 811 1 832 18 17 14 49 117 162 526 90 327 137 517 133 533 -3 13 -15
31 -26 41 -18 16 -100 17 -1141 22 l-1121 5 -66 216 c-36 119 -73 224 -81 234
-34 40 -69 45 -332 45 -209 0 -259 -3 -285 -16z m1010 -727 c11 -37 17 -70 13
-74 -4 -4 -40 -8 -81 -9 l-74 -2 -16 52 c-9 28 -21 64 -25 79 l-9 28 86 -3 86
-3 20 -68z m393 36 c4 -21 8 -56 8 -78 l1 -40 -154 0 -155 0 -6 25 c-4 14 -14
49 -23 78 l-16 52 169 0 169 0 7 -37z m404 -43 l0 -81 -148 2 c-82 0 -154 4
-160 8 -9 5 -32 108 -32 144 0 4 77 7 170 7 l170 0 0 -80z m394 8 c-3 -40 -9
-76 -11 -80 -7 -12 -301 -10 -308 2 -4 6 -9 42 -12 80 l-6 70 172 0 172 0 -7
-72z m406 62 c0 -31 -34 -139 -45 -144 -7 -2 -77 -4 -156 -3 l-144 2 3 45 c1
25 5 60 8 78 l5 32 164 0 c108 0 165 -4 165 -10z m246 -6 c-4 -9 -11 -37 -18
-63 -18 -76 -18 -76 -107 -79 -93 -4 -91 -8 -64 94 l17 64 89 0 c78 0 88 -2
83 -16z m-1774 -286 l24 -83 -25 -8 c-14 -4 -51 -6 -81 -4 l-55 4 -27 79 c-14
43 -27 82 -27 87 -1 4 37 7 83 7 l83 0 25 -82z m366 5 c7 -43 12 -83 12 -89 0
-17 -265 -17 -278 -1 -8 11 -52 146 -52 161 0 3 69 6 153 6 l154 0 11 -77z
m363 40 c1 -21 2 -60 3 -88 l1 -50 -130 -3 c-71 -1 -136 2 -143 6 -13 9 -43
157 -34 167 3 3 72 5 154 5 l148 0 1 -37z m370 33 c3 -3 0 -41 -5 -86 -12 -96
-4 -92 -172 -88 l-119 3 -3 88 -3 87 149 0 c82 0 151 -2 153 -4z m355 -83
l-22 -88 -140 0 -139 0 3 42 c2 23 5 50 7 60 2 10 4 30 4 46 l1 27 154 0 154
0 -22 -87z m264 85 c0 -2 -7 -25 -15 -53 -9 -27 -20 -67 -26 -87 l-10 -38 -78
0 c-43 0 -80 2 -83 5 -4 4 20 109 37 163 3 8 30 12 90 12 47 0 85 -1 85 -2z
m-1646 -320 c14 -44 23 -85 20 -90 -6 -9 -136 -9 -152 1 -5 3 -21 43 -35 89
l-25 82 84 0 83 0 25 -82z m327 43 c4 -19 10 -57 14 -86 l6 -52 -123 1 -123 1
-27 80 c-15 44 -27 84 -27 88 -1 4 61 6 136 5 l137 -3 7 -34z m339 -51 l0 -91
-125 2 -124 1 -6 32 c-3 17 -9 57 -14 89 l-8 57 139 0 138 0 0 -90z m336 73
c-2 -10 -7 -48 -11 -85 -5 -48 -11 -68 -23 -73 -25 -9 -222 -4 -228 7 -4 5 -8
45 -9 89 l-3 79 139 0 c129 0 140 -1 135 -17z m320 -60 c-12 -43 -25 -84 -29
-90 -6 -9 -42 -13 -121 -13 -62 0 -115 2 -117 4 -3 3 0 43 5 90 l9 86 137 0
137 0 -21 -77z m254 71 c0 -4 -10 -42 -22 -86 -17 -61 -26 -80 -42 -84 -24 -6
-141 -1 -141 6 0 3 9 42 19 88 l19 82 84 0 c45 0 83 -3 83 -6z m-1521 -256 c4
-13 11 -35 15 -50 l6 -28 -80 0 c-88 0 -87 -1 -106 75 l-6 25 81 0 c75 0 82
-2 90 -22z m305 10 c3 -7 7 -30 10 -50 l5 -38 -114 0 -114 0 -12 43 c-6 23
-13 45 -16 50 -2 4 50 7 117 7 88 0 122 -3 124 -12z m308 -25 c8 -62 7 -63
-113 -63 -119 0 -113 -3 -123 63 l-5 37 119 0 118 0 4 -37z m304 6 c-3 -17 -6
-40 -6 -50 0 -17 -9 -19 -115 -19 l-115 0 0 50 0 50 121 0 122 0 -7 -31z m304
19 c0 -7 -5 -30 -11 -50 l-10 -38 -113 0 -113 0 4 28 c12 78 1 72 128 72 85 0
115 -3 115 -12z m237 5 c-3 -5 -10 -27 -16 -50 l-12 -43 -79 0 c-44 0 -80 3
-80 6 0 3 5 25 11 50 l11 44 85 0 c46 0 82 -3 80 -7z"/>
<path d="M2291 2109 c-64 -33 -101 -96 -101 -171 0 -88 33 -144 105 -180 94
-49 212 -12 263 82 19 37 23 56 20 106 -4 70 -30 116 -86 155 -50 34 -142 38
-201 8z m159 -65 c80 -48 80 -178 -2 -220 -115 -60 -234 59 -174 174 30 58
117 80 176 46z"/>
<path d="M2350 1997 c-52 -26 -49 -104 5 -129 81 -37 143 87 64 127 -34 18
-37 18 -69 2z"/>
<path d="M3719 2110 c-91 -48 -132 -156 -93 -248 24 -58 72 -101 131 -118 48
-14 58 -14 107 0 137 40 190 209 99 316 -57 68 -167 91 -244 50z m176 -80 c30
-28 50 -88 41 -123 -17 -68 -94 -114 -159 -96 -105 29 -127 160 -40 229 38 30
121 24 158 -10z"/>
<path d="M3766 1989 c-36 -28 -36 -80 0 -108 15 -12 34 -21 44 -21 34 0 70 39
70 75 0 36 -36 75 -70 75 -10 0 -29 -9 -44 -21z"/>
<path d="M2998 1713 c23 -2 61 -2 85 0 23 2 4 4 -43 4 -47 0 -66 -2 -42 -4z"/>
</g>
</svg>
