<?xml version="1.0" standalone="no"?>
<!DOCTYPE svg PUBLIC "-//W3C//DTD SVG 20010904//EN"
 "http://www.w3.org/TR/2001/REC-SVG-20010904/DTD/svg10.dtd">
<svg version="1.0" xmlns="http://www.w3.org/2000/svg"
 width="580.000000pt" height="386.000000pt" viewBox="0 0 580.000000 386.000000"
 preserveAspectRatio="xMidYMid meet">

<g transform="translate(0.000000,386.000000) scale(0.100000,-0.100000)"
fill="#000000" stroke="none">
<path d="M1437 2794 c-3 -3 -3 -13 0 -22 4 -10 2 -13 -5 -8 -16 9 -15 -7 0
-22 8 -8 46 -12 108 -11 67 0 88 3 73 9 -13 5 -23 14 -23 21 0 6 6 8 13 5 6
-3 20 -9 30 -12 9 -4 17 -10 17 -15 0 -5 5 -9 11 -9 5 0 8 4 5 9 -4 5 0 11 6
14 10 3 10 7 0 20 -11 13 -10 16 5 20 10 3 3 5 -16 6 -34 1 -34 1 -16 -19 18
-20 18 -20 -13 -9 -18 6 -32 15 -32 20 0 14 -48 11 -53 -3 -4 -10 -6 -10 -6 0
-1 12 -92 18 -104 6z m83 -14 c0 -5 6 -10 13 -10 6 0 21 -7 31 -15 18 -14 13
-15 -51 -15 -69 0 -71 1 -69 25 1 22 6 25 39 25 20 0 37 -4 37 -10z m70 6 c0
-11 -19 -15 -25 -6 -3 5 1 10 9 10 9 0 16 -2 16 -4z"/>
<path d="M1746 2783 c-6 -14 -5 -15 5 -6 7 7 10 15 7 18 -3 3 -9 -2 -12 -12z"/>
<path d="M1805 2780 c3 -5 11 -10 16 -10 6 0 7 5 4 10 -3 6 -11 10 -16 10 -6
0 -7 -4 -4 -10z"/>
<path d="M1837 2763 c-10 -16 11 -39 23 -27 8 8 7 14 -4 23 -8 7 -17 8 -19 4z"/>
<path d="M1750 2745 c0 -8 8 -15 18 -15 10 0 22 -3 28 -7 5 -5 -1 2 -13 15
-26 26 -33 27 -33 7z"/>
<path d="M1705 2740 c-3 -5 1 -10 9 -10 9 0 16 5 16 10 0 6 -4 10 -9 10 -6 0
-13 -4 -16 -10z"/>
<path d="M2200 2734 c-19 -8 -42 -22 -52 -31 -22 -20 -32 -72 -24 -118 l7 -35
566 -2 565 -3 18 -57 18 -58 -559 0 c-307 0 -559 -4 -559 -8 0 -4 15 -53 33
-107 l34 -100 560 -3 561 -2 16 -47 c9 -26 16 -49 16 -52 0 -3 -253 -5 -561
-3 -450 2 -560 0 -557 -10 3 -7 13 -38 24 -68 10 -30 35 -71 55 -92 l36 -38
496 0 c273 0 506 4 519 9 40 15 78 61 78 94 0 16 -17 83 -37 149 l-36 118
-563 -2 -562 -3 -12 39 c-6 21 -14 44 -17 52 -4 12 80 14 556 14 309 0 561 2
561 4 0 14 -90 277 -104 304 -9 18 -31 42 -49 52 -31 19 -53 20 -512 20 -405
-1 -485 -3 -515 -16z m972 -45 c21 -9 68 -66 68 -82 0 -4 -234 -7 -520 -7
-361 0 -520 3 -520 11 0 21 22 51 53 69 30 19 54 20 464 20 282 0 440 -4 455
-11z m248 -653 c0 -23 -42 -68 -76 -82 -46 -19 -866 -20 -904 -1 -23 12 -70
71 -70 88 0 5 236 9 525 9 437 0 525 -2 525 -14z"/>
<path d="M1899 2685 c11 -19 18 -43 15 -53 -5 -16 -5 -16 6 1 9 14 7 25 -10
52 -28 46 -38 45 -11 0z"/>
<path d="M1824 2699 c1 -7 13 -19 26 -28 23 -15 23 -15 11 7 -7 12 -16 20 -21
17 -4 -3 -11 0 -13 5 -3 6 -4 5 -3 -1z"/>
<path d="M1860 2637 c0 -14 29 -70 30 -57 0 12 4 11 15 -4 8 -11 15 -15 15
-10 0 5 -13 24 -30 42 -16 18 -30 31 -30 29z"/>
<path d="M1932 2570 c0 -19 2 -27 5 -17 2 9 2 25 0 35 -3 9 -5 1 -5 -18z"/>
<path d="M1956 2535 c3 -22 6 -57 7 -78 2 -21 7 -41 12 -45 6 -4 10 -13 11
-19 4 -45 5 -48 15 -25 6 17 4 30 -7 47 -11 16 -14 34 -9 55 5 23 3 32 -10 36
-9 4 -13 13 -11 23 3 9 1 23 -4 31 -6 9 -7 1 -4 -25z"/>
<path d="M1921 2464 c0 -11 3 -14 6 -6 3 7 2 16 -1 19 -3 4 -6 -2 -5 -13z"/>
<path d="M1948 2398 c7 -9 12 -20 11 -24 -1 -5 -1 -11 1 -14 1 -3 4 -16 6 -30
2 -13 9 -27 16 -31 6 -4 7 -12 3 -19 -5 -9 -4 -11 3 -6 14 8 16 36 4 36 -5 0
-13 21 -18 47 -5 26 -16 49 -24 51 -12 4 -13 3 -2 -10z"/>
<path d="M2017 2350 c-8 -29 7 -61 16 -36 4 9 3 26 -2 38 l-8 22 -6 -24z"/>
<path d="M2041 2294 c0 -11 3 -14 6 -6 3 7 2 16 -1 19 -3 4 -6 -2 -5 -13z"/>
<path d="M1990 2255 c0 -3 7 -29 16 -56 12 -35 19 -47 25 -37 12 18 11 31 0
23 -6 -3 -13 10 -17 30 -5 29 -24 60 -24 40z"/>
<path d="M2070 2181 c0 -6 5 -13 10 -16 6 -3 10 1 10 9 0 9 -4 16 -10 16 -5 0
-10 -4 -10 -9z"/>
<path d="M2044 2139 c-3 -5 9 -9 26 -9 21 0 30 -4 27 -12 -2 -7 -12 -12 -22
-10 -17 3 -17 3 -1 -14 15 -14 19 -15 27 -3 7 11 9 10 10 -6 1 -11 1 -32 0
-47 -1 -14 3 -29 9 -33 7 -5 9 2 5 22 -5 23 -4 25 5 13 10 -13 11 -12 5 5 -4
11 -13 38 -21 60 -11 31 -20 40 -39 41 -14 1 -28 -2 -31 -7z"/>
<path d="M2051 2073 c0 -4 4 -17 9 -28 8 -19 9 -19 9 2 1 12 -3 25 -9 28 -5 3
-10 3 -9 -2z"/>
<path d="M2090 2002 c0 -5 10 -17 21 -28 22 -19 22 -19 10 3 -12 24 -31 39
-31 25z"/>
<path d="M2096 1957 c3 -10 9 -15 12 -12 3 3 0 11 -7 18 -10 9 -11 8 -5 -6z"/>
<path d="M2126 1942 c-2 -4 4 -9 15 -9 10 -1 19 2 19 8 0 11 -27 12 -34 1z"/>
<path d="M2157 1923 c-4 -3 -7 -13 -7 -22 0 -14 2 -14 10 -1 8 12 10 12 11 -5
l0 -20 9 20 c5 11 9 23 9 28 1 9 -23 9 -32 0z"/>
<path d="M2122 1893 c17 -41 30 -53 17 -15 -6 18 -15 35 -20 38 -5 3 -4 -7 3
-23z"/>
<path d="M2195 1863 c4 -39 -8 -60 -17 -31 -3 8 -7 6 -11 -5 -3 -9 1 -24 11
-34 9 -11 13 -13 8 -6 -5 8 -6 17 -2 21 4 4 12 -1 17 -11 13 -22 29 -22 29 1
0 14 -2 15 -10 2 -5 -8 -10 -10 -11 -5 0 6 -2 20 -3 33 -2 12 -1 22 2 22 2 0
13 -10 24 -22 l20 -23 -20 30 c-10 17 -24 39 -30 50 -10 17 -11 13 -7 -22z"/>
<path d="M2302 1771 c7 -9 14 -18 15 -20 2 -2 3 5 3 16 0 11 -7 20 -15 20 -12
0 -12 -3 -3 -16z"/>
<path d="M2267 1761 c3 -11 11 -22 19 -25 17 -6 17 -1 4 25 -14 25 -30 25 -23
0z"/>
<path d="M2492 1750 c7 -11 16 -20 19 -20 4 0 5 9 2 20 -3 11 -12 20 -19 20
-12 0 -12 -4 -2 -20z"/>
<path d="M2532 1756 c7 -8 15 -12 17 -11 5 6 -10 25 -20 25 -5 0 -4 -6 3 -14z"/>
<path d="M2635 1760 c3 -5 8 -10 11 -10 2 0 4 5 4 10 0 6 -5 10 -11 10 -5 0
-7 -4 -4 -10z"/>
<path d="M2920 1761 c0 -5 9 -7 20 -4 11 3 20 7 20 9 0 2 -9 4 -20 4 -11 0
-20 -4 -20 -9z"/>
<path d="M2203 1732 c-15 -13 -19 -22 -13 -37 8 -19 9 -19 9 2 1 31 19 38 19
8 0 -26 18 -55 33 -55 5 0 9 7 9 16 0 8 -4 13 -9 10 -5 -3 -12 1 -15 10 -10
25 -7 27 12 13 16 -13 16 -13 0 6 -9 11 -17 24 -16 28 0 16 -7 16 -29 -1z"/>
<path d="M2325 1740 c-7 -12 2 -12 30 0 19 8 19 9 -2 9 -12 1 -25 -3 -28 -9z"/>
<path d="M3175 1740 c3 -5 16 -10 28 -10 18 0 19 2 7 10 -20 13 -43 13 -35 0z"/>
<path d="M2390 1733 c0 -5 5 -15 10 -23 8 -12 10 -11 10 8 0 12 -4 22 -10 22
-5 0 -10 -3 -10 -7z"/>
<path d="M3071 1714 c0 -11 3 -14 6 -6 3 7 2 16 -1 19 -3 4 -6 -2 -5 -13z"/>
<path d="M2370 1683 c0 -12 6 -26 14 -30 7 -4 16 -15 19 -23 5 -13 6 -13 6 0
1 8 -8 29 -19 45 -18 27 -20 28 -20 8z"/>
<path d="M2145 1680 c-3 -5 -1 -10 4 -10 6 0 11 5 11 10 0 6 -2 10 -4 10 -3 0
-8 -4 -11 -10z"/>
<path d="M2200 1640 c0 -5 5 -10 11 -10 5 0 7 5 4 10 -3 6 -8 10 -11 10 -2 0
-4 -4 -4 -10z"/>
<path d="M2350 1640 c0 -5 5 -10 11 -10 5 0 7 5 4 10 -3 6 -8 10 -11 10 -2 0
-4 -4 -4 -10z"/>
<path d="M3267 1631 c-4 -17 -3 -21 5 -13 5 5 8 16 6 23 -3 8 -7 3 -11 -10z"/>
<path d="M2226 1625 c-3 -9 0 -15 9 -15 16 0 20 16 6 24 -5 3 -11 -1 -15 -9z"/>
<path d="M2124 1615 c-3 -8 -4 -20 -2 -27 3 -7 7 -1 10 15 6 29 1 36 -8 12z"/>
<path d="M3386 1605 c4 -8 8 -15 10 -15 2 0 4 7 4 15 0 8 -4 15 -10 15 -5 0
-7 -7 -4 -15z"/>
<path d="M3415 1605 c-3 -8 -7 -22 -10 -31 -3 -8 -1 -13 4 -9 5 3 11 -1 14 -7
3 -7 4 4 3 24 -1 41 -4 46 -11 23z"/>
<path d="M2216 1593 c6 -4 14 -15 17 -23 5 -11 6 -9 4 4 -1 11 -9 21 -17 23
-10 3 -11 2 -4 -4z"/>
<path d="M2140 1586 c0 -2 7 -9 15 -16 12 -10 15 -10 15 4 0 9 -7 16 -15 16
-8 0 -15 -2 -15 -4z"/>
<path d="M2388 1583 c-10 -2 -18 -9 -18 -14 0 -14 16 -11 30 6 7 8 11 14 9 14
-2 -1 -12 -3 -21 -6z"/>
<path d="M3470 1586 c0 -2 7 -9 15 -16 13 -11 14 -10 9 4 -5 14 -24 23 -24 12z"/>
<path d="M2185 1560 c4 -14 2 -19 -7 -17 -7 2 -10 2 -5 0 4 -3 7 -9 7 -14 0
-6 -4 -8 -9 -5 -5 4 -8 -2 -7 -11 2 -9 8 -19 14 -21 7 -2 10 3 6 12 -4 10 -1
16 9 16 9 0 19 4 22 10 4 6 -1 7 -12 3 -16 -6 -16 -5 -5 10 14 17 9 37 -9 37
-6 0 -8 -9 -4 -20z"/>
<path d="M3375 1570 c3 -5 8 -10 11 -10 2 0 4 5 4 10 0 6 -5 10 -11 10 -5 0
-7 -4 -4 -10z"/>
<path d="M2395 1549 c-4 -6 -5 -12 -2 -15 2 -3 7 2 10 11 7 17 1 20 -8 4z"/>
<path d="M2235 1540 c-3 -5 3 -20 15 -32 19 -21 21 -21 15 -3 -6 18 -5 18 7 3
7 -9 19 -25 26 -35 11 -17 12 -16 7 5 -4 12 -2 22 3 22 5 0 9 8 8 18 0 9 5 16
12 14 8 -1 11 2 7 8 -5 8 -13 6 -25 -5 -13 -11 -20 -13 -25 -5 -4 6 -14 9 -22
6 -8 -3 -11 -1 -8 4 3 6 2 10 -4 10 -5 0 -13 -4 -16 -10z"/>
<path d="M3383 1535 c-3 -9 -3 -18 -1 -21 3 -3 8 4 11 16 6 23 -1 27 -10 5z"/>
<path d="M3345 1520 c6 -30 16 -40 12 -12 -2 12 -6 24 -10 28 -3 4 -4 -4 -2
-16z"/>
<path d="M2339 1513 c-13 -16 -12 -17 4 -4 9 7 17 15 17 17 0 8 -8 3 -21 -13z"/>
<path d="M2359 1503 c-13 -16 -12 -17 4 -4 9 7 17 15 17 17 0 8 -8 3 -21 -13z"/>
<path d="M3300 1505 c0 -2 6 -8 13 -14 10 -8 14 -7 14 2 0 8 -6 14 -14 14 -7
0 -13 -1 -13 -2z"/>
<path d="M3495 1500 c-3 -6 1 -7 9 -4 18 7 21 14 7 14 -6 0 -13 -4 -16 -10z"/>
<path d="M2208 1482 c-10 -13 -10 -14 0 -8 7 4 20 2 28 -5 8 -6 16 -10 19 -7
2 2 -4 11 -15 20 -17 15 -20 15 -32 0z"/>
<path d="M3392 1480 c0 -14 2 -19 5 -12 2 6 2 18 0 25 -3 6 -5 1 -5 -13z"/>
<path d="M3418 1463 c6 -2 18 -2 25 0 6 3 1 5 -13 5 -14 0 -19 -2 -12 -5z"/>
<path d="M2942 1345 c-22 -10 -38 -27 -49 -52 -14 -35 -14 -40 3 -73 16 -29
29 -38 79 -53 92 -28 105 -35 105 -55 0 -29 -21 -42 -67 -42 -34 0 -46 5 -59
25 -11 17 -25 25 -46 25 -28 0 -30 -2 -23 -27 10 -40 33 -62 78 -74 88 -24
170 13 182 81 10 53 -17 79 -111 110 -67 21 -80 29 -82 49 -2 13 2 28 10 32
25 16 77 10 100 -13 11 -11 32 -22 45 -24 32 -3 31 35 -2 68 -39 39 -105 48
-163 23z"/>
<path d="M1625 1338 c-45 -25 -54 -39 -43 -64 6 -13 14 -24 17 -24 12 0 30 38
27 56 -4 25 12 34 49 27 16 -3 26 -2 22 3 -12 13 -50 14 -72 2z m-6 -21 c-2
-1 -13 -9 -24 -17 -19 -14 -19 -14 -6 3 7 9 18 17 24 17 6 0 8 -1 6 -3z m-7
-39 c-7 -7 -12 -8 -12 -2 0 6 3 14 7 17 3 4 9 5 12 2 2 -3 -1 -11 -7 -17z"/>
<path d="M1710 1339 c0 -5 4 -8 9 -5 11 7 36 -22 28 -31 -4 -3 -13 0 -22 7 -9
7 -18 11 -21 8 -3 -3 11 -15 31 -26 19 -12 35 -26 35 -32 0 -17 24 -11 37 8
14 24 5 38 -40 62 -42 22 -57 25 -57 9z m90 -61 c0 -13 -20 -9 -36 6 -12 13
-12 15 4 18 16 4 32 -8 32 -24z"/>
<path d="M2145 1341 c-3 -5 5 -11 17 -13 22 -3 39 -28 18 -28 -6 0 -8 5 -5 10
3 6 -1 10 -11 10 -12 0 -14 -3 -6 -13 17 -20 19 -69 3 -75 -9 -3 -12 0 -9 9 3
8 2 23 -3 34 -6 16 -8 14 -8 -13 -1 -20 5 -35 14 -38 8 -4 12 -10 9 -15 -3 -5
3 -6 13 -3 17 5 17 5 1 -9 -21 -17 -23 -28 -5 -23 6 1 9 1 5 -1 -12 -7 -9 -20
5 -26 8 -3 13 9 15 40 2 33 0 43 -9 37 -9 -5 -10 -2 -4 12 18 43 18 87 -1 101
-21 15 -31 16 -39 4z m42 -73 c-3 -8 -6 -5 -6 6 -1 11 2 17 5 13 3 -3 4 -12 1
-19z"/>
<path d="M2260 1333 c0 -15 2 -15 9 -4 8 13 12 13 28 0 16 -13 17 -13 4 4 -7
9 -20 17 -27 17 -8 0 -14 -8 -14 -17z"/>
<path d="M3180 1185 l0 -165 35 0 36 0 -2 78 c-2 94 10 122 51 122 49 0 60
-21 60 -116 l0 -84 30 0 30 0 0 103 c0 76 -4 108 -15 124 -22 31 -78 40 -121
20 -34 -17 -49 -10 -38 17 3 9 3 27 0 41 -5 20 -13 25 -36 25 l-30 0 0 -165z"/>
<path d="M1645 1310 c-3 -5 -1 -10 4 -10 6 0 11 5 11 10 0 6 -2 10 -4 10 -3 0
-8 -4 -11 -10z"/>
<path d="M1550 1263 c1 -10 6 -28 14 -41 11 -21 14 -22 26 -7 11 13 10 15 -3
10 -16 -7 -33 27 -22 45 3 5 1 10 -4 10 -6 0 -11 -8 -11 -17z"/>
<path d="M1970 1266 c0 -9 5 -16 10 -16 6 0 10 5 10 10 0 6 7 10 15 10 8 0 15
-4 15 -10 0 -5 8 -6 17 -3 12 5 15 2 11 -9 -4 -10 2 -19 17 -26 16 -8 25 -21
28 -44 l4 -33 1 37 c3 50 -30 86 -85 94 -36 5 -43 4 -43 -10z"/>
<path d="M3513 1268 c-58 -28 -72 -173 -21 -224 50 -50 160 -37 187 22 15 33
14 126 -1 159 -22 48 -108 71 -165 43z m107 -83 c19 -57 -4 -115 -46 -115 -44
0 -67 64 -45 124 18 46 75 41 91 -9z"/>
<path d="M3781 1266 c-44 -24 -50 -51 -51 -204 l0 -143 28 3 c26 3 27 6 30 61
2 31 5 57 8 57 3 0 16 -7 29 -16 33 -21 84 -12 116 22 21 22 24 35 24 101 0
72 -1 76 -33 104 -26 24 -41 29 -80 29 -26 -1 -58 -7 -71 -14z m101 -53 c25
-29 30 -70 14 -108 -12 -29 -20 -35 -44 -35 -38 0 -53 19 -59 74 -4 35 -1 48
16 65 26 26 53 27 73 4z"/>
<path d="M1935 1259 c-11 -16 -1 -19 13 -3 7 8 8 14 3 14 -5 0 -13 -5 -16 -11z"/>
<path d="M2268 1263 c7 -3 16 -2 19 1 4 3 -2 6 -13 5 -11 0 -14 -3 -6 -6z"/>
<path d="M2760 1266 c0 -2 7 -7 16 -10 8 -3 12 -2 9 4 -6 10 -25 14 -25 6z"/>
<path d="M2485 1250 c-3 -5 -1 -10 4 -10 6 0 11 5 11 10 0 6 -2 10 -4 10 -3 0
-8 -4 -11 -10z"/>
<path d="M2525 1250 c3 -5 8 -10 11 -10 2 0 4 5 4 10 0 6 -5 10 -11 10 -5 0
-7 -4 -4 -10z"/>
<path d="M2650 1238 c0 -12 3 -18 7 -14 11 10 12 36 2 36 -5 0 -9 -10 -9 -22z"/>
<path d="M1950 1235 c0 -9 -6 -12 -15 -9 -8 4 -15 1 -15 -6 0 -6 5 -8 10 -5 6
3 10 1 10 -5 0 -7 6 -5 15 4 17 17 20 36 5 36 -5 0 -10 -7 -10 -15z"/>
<path d="M2000 1240 c0 -5 5 -10 11 -10 5 0 7 5 4 10 -3 6 -8 10 -11 10 -2 0
-4 -4 -4 -10z"/>
<path d="M2260 1235 c0 -8 2 -15 4 -15 2 0 6 7 10 15 3 8 1 15 -4 15 -6 0 -10
-7 -10 -15z"/>
<path d="M2285 1218 c-8 -43 1 -108 15 -108 12 0 12 97 0 125 -6 17 -9 14 -15
-17z m12 -50 c-2 -13 -4 -5 -4 17 -1 22 1 32 4 23 2 -10 2 -28 0 -40z"/>
<path d="M2680 1240 c0 -5 5 -10 10 -10 6 0 10 5 10 10 0 6 -4 10 -10 10 -5 0
-10 -4 -10 -10z"/>
<path d="M2800 1245 c1 -6 7 -21 16 -35 l15 -25 -7 25 c-7 26 -24 52 -24 35z"/>
<path d="M1787 1209 c4 -13 8 -18 11 -10 2 7 -1 18 -6 23 -8 8 -9 4 -5 -13z"/>
<path d="M1897 1209 c-12 -42 -8 -59 12 -59 11 0 21 -6 24 -12 2 -7 8 -10 12
-5 10 8 -26 38 -37 31 -5 -3 -8 5 -8 17 0 21 1 21 18 6 10 -10 23 -17 28 -17
5 0 1 5 -9 11 -10 6 -22 20 -26 32 -8 20 -8 20 -14 -4z"/>
<path d="M2402 1218 c2 -7 -3 -12 -9 -10 -7 1 -13 -2 -13 -8 0 -5 6 -10 14
-10 17 0 29 27 15 35 -5 4 -8 1 -7 -7z"/>
<path d="M1540 1213 c0 -7 0 -15 0 -18 0 -3 3 -5 6 -4 8 1 24 -22 24 -35 0 -5
-7 -3 -15 4 -9 7 -18 11 -20 8 -9 -8 6 -38 16 -32 5 3 9 -1 9 -8 0 -7 7 0 15
16 9 16 14 34 11 40 -2 6 -5 4 -5 -4 -1 -9 -9 -3 -21 15 -11 17 -20 24 -20 18z"/>
<path d="M1820 1199 c0 -13 5 -31 10 -39 7 -11 8 -5 4 20 -8 43 -14 51 -14 19z"/>
<path d="M2047 1208 c6 -7 9 -38 8 -68 -2 -34 1 -58 8 -62 9 -6 8 -10 -2 -17
-20 -13 -6 -41 21 -41 l23 1 -24 13 c-14 8 -19 16 -13 20 11 6 9 86 -2 104 -3
6 -1 12 5 14 14 5 1 35 -18 42 -12 5 -13 3 -6 -6z"/>
<path d="M2660 1199 c0 -5 5 -7 10 -4 6 3 10 8 10 11 0 2 -4 4 -10 4 -5 0 -10
-5 -10 -11z"/>
<path d="M2776 1197 c3 -10 9 -15 12 -12 3 3 0 11 -7 18 -10 9 -11 8 -5 -6z"/>
<path d="M2797 1167 c-3 -8 -2 -20 3 -26 5 -9 8 -4 8 13 0 29 -3 32 -11 13z"/>
<path d="M2825 1169 c-4 -6 -5 -12 -2 -15 2 -3 7 2 10 11 7 17 1 20 -8 4z"/>
<path d="M1804 1129 c2 -24 5 -46 5 -49 3 -8 31 33 31 44 0 6 -5 4 -10 -4 -5
-8 -10 -10 -11 -5 -2 24 -8 47 -13 53 -3 3 -4 -15 -2 -39z"/>
<path d="M2141 1105 c-1 -46 2 -65 11 -65 9 0 8 -3 -2 -10 -13 -8 -12 -10 3
-10 11 0 21 9 25 22 5 20 6 20 12 3 4 -10 7 6 7 36 l0 54 -10 -37 c-6 -21 -14
-38 -18 -38 -11 0 -21 53 -11 59 9 5 -2 51 -11 51 -3 0 -5 -29 -6 -65z"/>
<path d="M2390 1155 c-11 -13 -10 -14 4 -9 9 3 16 10 16 15 0 13 -6 11 -20 -6z"/>
<path d="M2650 1166 c0 -2 7 -9 15 -16 13 -11 14 -10 9 4 -5 14 -24 23 -24 12z"/>
<path d="M2685 1160 c4 -6 11 -8 16 -5 14 9 11 15 -7 15 -8 0 -12 -5 -9 -10z"/>
<path d="M1587 1144 c-9 -9 21 -58 46 -73 14 -9 11 -2 -11 25 -17 20 -29 41
-26 46 6 10 0 11 -9 2z"/>
<path d="M2610 1126 c0 -31 6 -34 13 -6 3 11 1 23 -4 26 -5 3 -9 -6 -9 -20z"/>
<path d="M2735 1141 c-3 -6 3 -9 14 -8 11 0 17 5 15 9 -7 11 -22 10 -29 -1z"/>
<path d="M1890 1128 c0 -8 5 -19 11 -25 8 -8 8 -13 0 -17 -6 -4 -11 -20 -11
-36 0 -25 3 -29 30 -28 38 1 40 18 3 19 l-28 1 30 8 c22 6 24 8 9 9 -17 1 -20
6 -17 26 3 14 -1 31 -11 40 -12 13 -16 13 -16 3z"/>
<path d="M2363 1084 c0 -62 1 -63 46 -55 3 1 -4 7 -14 15 -10 7 -22 33 -26 57
-7 42 -7 42 -6 -17z"/>
<path d="M2654 1132 c4 -7 1 -12 -8 -12 -9 0 -16 -5 -16 -11 0 -5 5 -7 10 -4
6 3 13 -1 16 -9 3 -9 10 -16 14 -16 10 0 0 49 -13 57 -6 3 -7 1 -3 -5z"/>
<path d="M2382 1098 c2 -5 8 -9 13 -9 5 0 11 4 13 9 1 5 -4 9 -13 9 -9 0 -14
-4 -13 -9z"/>
<path d="M2091 1084 c0 -11 3 -14 6 -6 3 7 2 16 -1 19 -3 4 -6 -2 -5 -13z"/>
<path d="M2260 1060 c0 -35 3 -40 24 -40 19 0 23 5 22 31 -1 23 -7 34 -23 40
-21 8 -23 6 -23 -31z m34 4 c7 -19 -2 -37 -15 -29 -12 8 -12 45 0 45 5 0 12
-7 15 -16z"/>
<path d="M1569 1072 c5 -9 16 -17 24 -18 13 -2 14 1 5 15 -14 22 -41 24 -29 3z"/>
<path d="M1770 1078 c0 -20 19 -34 29 -22 3 5 4 8 2 7 -2 -2 -10 5 -17 15 -12
16 -13 16 -14 0z"/>
<path d="M2562 1070 c0 -14 2 -19 5 -12 2 6 2 18 0 25 -3 6 -5 1 -5 -13z"/>
<path d="M2516 1071 c-4 -5 -3 -16 0 -24 6 -17 34 -31 34 -18 0 5 -7 12 -16
15 -9 4 -14 13 -10 21 6 16 0 20 -8 6z"/>
<path d="M2753 1073 c-7 -2 -13 -10 -13 -18 0 -21 23 -33 45 -24 l20 9 -20 -1
c-34 -2 -36 0 -25 21 6 11 9 20 8 19 -2 0 -9 -3 -15 -6z"/>
<path d="M1700 1060 c-23 -7 -23 -8 -3 -9 12 -1 25 4 28 9 3 6 5 10 3 9 -2 -1
-14 -5 -28 -9z"/>
<path d="M2635 1050 c3 -5 8 -10 11 -10 2 0 4 5 4 10 0 6 -5 10 -11 10 -5 0
-7 -4 -4 -10z"/>
<path d="M2680 1030 c0 -5 12 -10 28 -9 24 0 25 1 7 9 -27 12 -35 12 -35 0z"/>
<path d="M1648 1023 c7 -3 16 -2 19 1 4 3 -2 6 -13 5 -11 0 -14 -3 -6 -6z"/>
</g>
</svg>
